<?xml version="1.0" encoding="UTF-8"?>
<svg id="Layer_2" data-name="Layer 2" xmlns="http://www.w3.org/2000/svg" viewBox="0 0 84.18 86.55">
  <defs>
    <style>
      .cls-1 {
        fill: #64b72f;
      }

      .cls-2 {
        fill: #bfc0c0;
      }

      .cls-3 {
        fill: #fff;
      }

      .cls-4 {
        fill: #fee299;
      }

      .cls-5 {
        fill: #f4ad8e;
      }

      .cls-6 {
        fill: #006bb9;
      }

      .cls-7 {
        fill: #c1c2c2;
      }

      .cls-8 {
        fill: #ffe500;
      }

      .cls-9 {
        fill: #231916;
      }

      .cls-10 {
        fill: #84bbe6;
      }

      .cls-11 {
        fill: #ca8200;
      }

      .cls-12 {
        fill: #fdd77f;
      }

      .cls-13 {
        fill: #e60013;
      }

      .cls-14 {
        fill: #cee4ae;
      }

      .cls-15 {
        fill: #ec6600;
      }
    </style>
  </defs>
  <g id="Left_Folio" data-name="Left Folio">
    <g>
      <g>
        <g>
          <g>
            <path class="cls-11" d="M78.09,38.21c-3.59-8.49-21.33-13.4-40-9.52-10.48,2.18-26.82,4.61-34.18,16.69-2.67,4.37-7.3,17.54,3.4,30.01,7.47,8.71,19.7,10.56,30.6,10.59,5.42.02,18.39-1.54,25.83-6.44,5.07-3.34,6.81-8.87,4.88-13.99-2.33-6.18-7.04-6.39-.03-11.68,2.92-2.21,6.48-3.14,8.5-6.42,1.57-2.54,2.23-6.29.99-9.25ZM55.06,67.28c-3.13,0-5.66-1.65-5.66-3.68s2.54-3.68,5.66-3.68,5.66,1.65,5.66,3.68-2.54,3.68-5.66,3.68Z"/>
            <path class="cls-9" d="M38,86.55s0,0,0,0h-.09c-14.69-.04-24.84-3.57-31.03-10.79C-3.34,63.85-.1,50.88,3.43,45.09c6.94-11.39,21.49-14.32,32.11-16.46.84-.17,1.66-.33,2.44-.5,4.34-.9,8.74-1.36,13.08-1.36,13.65,0,24.72,4.51,27.55,11.21,1.41,3.33.5,7.3-1.03,9.76-1.42,2.29-3.56,3.5-5.62,4.67-1.02.58-2.07,1.17-3.03,1.89-4.48,3.38-3.91,4.21-2.2,6.67.75,1.09,1.7,2.45,2.42,4.37,2.08,5.5.08,11.26-5.1,14.66-7.23,4.76-19.82,6.53-26.06,6.53h0ZM51.06,27.91c-4.26,0-8.59.45-12.85,1.34-.78.16-1.6.33-2.44.5-10.42,2.1-24.69,4.97-31.37,15.94-.37.61-8.93,15.04,3.34,29.35,5.96,6.95,15.83,10.35,30.17,10.39h.08c6.11,0,18.41-1.72,25.44-6.35,4.71-3.1,6.55-8.33,4.66-13.32-.67-1.79-1.57-3.08-2.29-4.12-1.96-2.82-2.67-4.35,2.45-8.21,1.02-.77,2.1-1.38,3.15-1.98,2.03-1.15,3.95-2.24,5.22-4.29,1.62-2.62,2.01-6.2.94-8.73-2.62-6.19-13.52-10.52-26.51-10.52h0ZM55.06,67.84c-3.49,0-6.23-1.87-6.23-4.25s2.74-4.25,6.23-4.25,6.23,1.87,6.23,4.25-2.74,4.25-6.23,4.25h0ZM55.06,60.48c-2.76,0-5.1,1.43-5.1,3.11s2.33,3.12,5.1,3.12,5.1-1.43,5.1-3.12-2.33-3.11-5.1-3.11h0Z"/>
          </g>
          <g>
            <path class="cls-11" d="M54.69,61.92c2.92,0,5.28,1.54,5.28,3.43,0,.03,0,.05,0,.08.48-.54.76-1.17.76-1.84,0-2.03-2.54-3.68-5.66-3.68s-5.66,1.65-5.66,3.68c0,.31.06.61.17.89.59-1.48,2.65-2.57,5.11-2.57Z"/>
            <path class="cls-9" d="M59.97,66c-.07,0-.14-.01-.2-.04-.22-.08-.36-.29-.36-.53,0-.03,0-.07,0-.1,0-1.54-2.16-2.85-4.72-2.85-2.15,0-4.07.93-4.58,2.21-.09.21-.29.36-.53.36h0c-.23,0-.44-.15-.52-.36-.14-.37-.21-.74-.21-1.1,0-2.38,2.74-4.25,6.23-4.25s6.23,1.87,6.23,4.25c0,.78-.31,1.55-.9,2.21-.11.12-.26.19-.42.19h0ZM54.69,61.35c2.51,0,4.61,1.03,5.45,2.52.01-.09.02-.18.02-.28,0-1.69-2.33-3.11-5.1-3.11-2.34,0-4.37,1.02-4.94,2.36,1.08-.92,2.75-1.49,4.56-1.49h0Z"/>
          </g>
          <path class="cls-12" d="M68.6,51.04c5.19-3.92,12.35-6.07,9.49-12.83-3.59-8.49-21.33-17.18-40-13.29-10.48,2.18-26.82,8.39-34.18,20.47-5.06,8.29-2.62,19.95,3.72,27.01,7.66,8.54,19.37,10.73,30.28,10.76,9.12.03,35.46-4.93,30.68-17.58-2.33-6.18-7.01-9.25,0-14.54ZM55.06,67.28c-3.13,0-5.66-1.65-5.66-3.68s2.54-3.68,5.66-3.68,5.66,1.65,5.66,3.68-2.54,3.68-5.66,3.68Z"/>
        </g>
        <g>
          <path class="cls-4" d="M71.49,30.93c-.83-.57-1.71-1.13-2.66-1.65-7.01,3.45-15.31,4.53-22.95,4.8-7.48.26-16.24-.47-23.21-4.04-.85.39-1.69.81-2.53,1.24,7.03,3.99,15.83,5.11,23.67,5.15,9.16.04,19.36-1.13,27.68-5.5Z"/>
          <path class="cls-4" d="M45.89,30.46c5.73-.48,11.9-1.58,17.64-3.62-2.15-.8-4.46-1.47-6.9-1.96-3,.78-6.05,1.34-9.02,1.75-5.16.72-11.16,1.09-16.79.22-1.83.59-3.72,1.28-5.63,2.07,6.62,2.01,13.91,2.11,20.7,1.54Z"/>
          <path class="cls-4" d="M78.09,38.21c-.57-1.35-1.5-2.69-2.72-4-20.69,2.21-44.83,10.65-63.4,2.3-1.96,1.55-3.76,3.26-5.35,5.15,21,12.07,48.21,1.36,72.11-.22.06-.95-.12-2.01-.63-3.22Z"/>
          <path class="cls-4" d="M37.21,49.93c-10.93.8-24.21,3.45-35.32.24-.48,1.79-.7,3.65-.69,5.52,9.97,2.7,21.28,1.17,31.32.28,11.1-.99,24-2.08,33.33,3.93-1.02-2.14-1.47-4.02.02-6.17-8.36-4.41-18.78-4.52-28.65-3.8Z"/>
          <path class="cls-4" d="M56.97,75c-5.54-3.79-13.02-5.05-19.51-6.15-7.82-1.31-15.73-2.07-23.63-2.75-3.38-.29-6.95-.34-10.51-.52.89,2.07,2.05,4.01,3.42,5.74,1.82.08,3.63.17,5.4.31,8.38.69,16.75,1.55,25.06,2.87,4.14.65,8.2,1.6,12.17,2.96,1.6.55,3.15,1.25,4.67,2.01.43.23.85.48,1.25.76,1.77-.56,3.5-1.2,5.1-1.94-.84-1.33-2.09-2.39-3.42-3.31Z"/>
          <path class="cls-4" d="M59.48,65.9c-1.04.84-2.63,1.38-4.42,1.38-.14,0-.27,0-.41-.01,2.27.76,4.47,1.75,6.51,3.08,2.11,1.38,3.33,3.23,3.8,5.28.76-.57,1.43-1.18,2.01-1.83-.12-.43-.27-.86-.44-1.3-1.22-3.06-3.92-5.14-7.05-6.61Z"/>
          <path class="cls-4" d="M41.21,64.64c3.32.42,6.71.86,9.99,1.65-1.1-.67-1.8-1.62-1.8-2.68,0-.25.04-.49.11-.73-.11-.02-.22-.04-.33-.07-8.62-1.75-17.56-2.29-26.32-2.7-6.96-.33-14.22.02-21.3-.4.17,1.01.41,2.01.71,3,4.89.19,9.85.05,14.64.2,8.13.26,16.23.73,24.31,1.74Z"/>
          <path class="cls-4" d="M11.16,75.66c1.17.91,2.4,1.72,3.68,2.44,9.65-1.03,21.97-.85,26.13,4.92.89-.07,1.86-.17,2.87-.3-4.15-9.18-21.29-8.76-32.69-7.06Z"/>
        </g>
        <path class="cls-9" d="M37.99,83.72h-.08c-14.09-.04-24.13-3.62-30.7-10.95-5.96-6.65-9.31-18.61-3.78-27.68,6.97-11.43,22.42-18.2,34.55-20.73,3.08-.64,6.25-.96,9.43-.96,15.47,0,28.24,7.58,31.2,14.59,2.43,5.75-1.96,8.51-6.2,11.18-1.17.74-2.37,1.5-3.47,2.33-4.96,3.75-3.74,6.05-1.71,9.88.62,1.18,1.33,2.51,1.9,4.01,1.04,2.77.75,5.37-.88,7.73-5.12,7.41-22.51,10.61-30.25,10.61h0ZM47.41,24.53c-3.1,0-6.2.32-9.2.94-11.9,2.47-27.03,9.08-33.81,20.21-5.25,8.61-2.03,20,3.65,26.34,6.35,7.08,16.11,10.54,29.86,10.58h.07c6.57,0,24.34-2.91,29.32-10.12,1.41-2.04,1.66-4.29.76-6.69-.54-1.43-1.2-2.67-1.84-3.88-2.07-3.9-3.71-6.99,2.03-11.31,1.14-.86,2.37-1.63,3.55-2.38,4.37-2.75,7.81-4.92,5.76-9.78-2.82-6.68-15.15-13.9-30.16-13.9h0ZM55.06,67.84c-3.49,0-6.23-1.87-6.23-4.25s2.74-4.25,6.23-4.25,6.23,1.87,6.23,4.25-2.74,4.25-6.23,4.25h0ZM55.06,60.48c-2.76,0-5.1,1.43-5.1,3.11s2.33,3.12,5.1,3.12,5.1-1.43,5.1-3.12-2.33-3.11-5.1-3.11h0Z"/>
      </g>
      <g>
        <g>
          <rect class="cls-15" x="64.03" y="14.37" width="2.69" height="59.88" transform="translate(-13.6 45.09) rotate(-34.69)"/>
          <path class="cls-9" d="M81.33,70.32c-.2,0-.4-.09-.52-.27L46.7,20.83c-.1-.14-.13-.31-.1-.48.03-.17.12-.31.26-.41l2.21-1.53c.29-.2.68-.13.88.16l34.11,49.21c.1.14.13.31.1.48-.03.17-.13.31-.26.41l-2.21,1.53c-.11.08-.24.11-.36.11h0ZM48.1,20.63l33.38,48.17,1.17-.81L49.27,19.82l-1.17.81h0Z"/>
        </g>
        <g>
          <rect class="cls-7" x="44.97" y="13.27" width="2.69" height="7.06" transform="translate(-1.32 29.38) rotate(-34.73)"/>
          <path class="cls-9" d="M47.22,21.11s-.08,0-.11,0c-.17-.03-.31-.13-.41-.26l-4.02-5.81c-.2-.29-.13-.68.16-.88l2.21-1.53c.14-.1.31-.13.48-.1.16.03.31.12.41.26l4.02,5.81c.2.29.13.68-.16.88l-2.21,1.53c-.11.07-.23.11-.36.11h0ZM44.08,14.83l3.3,4.76,1.17-.81-3.3-4.76-1.17.81h0Z"/>
        </g>
        <g>
          <path class="cls-3" d="M43.14,8.59c-.91-3.06-2.47-6.6-3.58-7.65-.84-.94-2.33.09-2.25,1.17-1.25-.28-2.04.36-2.08,1.83-.88-.44-1.69.31-1.87,1.3,1.53,1.24,3.98,3.92,6.39,5.71"/>
          <path class="cls-9" d="M39.75,11.51c-.12,0-.24-.04-.34-.11-1.48-1.1-2.95-2.51-4.25-3.75-.84-.81-1.57-1.5-2.16-1.98-.16-.13-.24-.34-.2-.54.14-.78.58-1.42,1.18-1.72.24-.12.5-.18.76-.18.15-.72.49-1.13.78-1.36.27-.21.69-.42,1.31-.4.18-.57.63-1.08,1.21-1.33.69-.3,1.43-.15,1.92.39,1.25,1.21,2.85,4.95,3.72,7.89.09.3-.08.61-.38.7-.3.09-.62-.08-.7-.38-.95-3.19-2.48-6.51-3.43-7.4-.01-.01-.02-.02-.03-.03-.17-.19-.39-.23-.65-.12-.37.16-.63.54-.61.87.01.18-.06.35-.19.47-.14.12-.32.16-.5.12-.29-.07-.7-.1-.97.11-.33.25-.41.78-.42,1.17,0,.19-.11.37-.27.47-.17.1-.37.11-.54.02-.18-.09-.33-.09-.49-.01-.2.1-.38.32-.49.6.56.48,1.21,1.1,1.94,1.8,1.27,1.22,2.71,2.6,4.14,3.65.25.19.3.54.12.79-.11.15-.28.23-.45.23h0Z"/>
        </g>
        <path class="cls-9" d="M38.98,7.93c-.11,0-.22-.05-.3-.14-.71-.89-2.66-2.75-2.67-2.77-.15-.14-.16-.38-.01-.53.14-.15.38-.16.53-.01.08.08,2,1.91,2.74,2.84.13.16.1.4-.06.53-.07.06-.15.08-.24.08h0Z"/>
        <path class="cls-9" d="M40.48,7.75c-.14,0-.28-.08-.34-.22-.55-1.19-1.98-3.4-2-3.42-.11-.18-.06-.41.11-.52.17-.11.41-.06.52.11.06.09,1.48,2.28,2.05,3.52.09.19,0,.41-.18.5-.05.02-.11.04-.16.04h0Z"/>
        <g>
          <polygon class="cls-7" points="43.14 8.59 45.41 13.13 43.2 14.67 39.75 10.94 43.14 8.59"/>
          <path class="cls-9" d="M43.2,15.3c-.17,0-.34-.07-.47-.2l-3.45-3.72c-.12-.14-.19-.32-.17-.5.02-.18.12-.35.27-.45l3.39-2.35c.15-.11.34-.14.52-.09.18.05.33.17.41.33l2.27,4.55c.14.28.05.63-.21.8l-2.21,1.53c-.11.08-.24.11-.36.11h0ZM40.71,11.05l2.58,2.78,1.31-.91-1.69-3.4-2.19,1.52h0Z"/>
        </g>
      </g>
      <g>
        <g>
          <g>
            <path class="cls-1" d="M13.53,55.9c-3.74-.11-3.74,1.86-5.26,2.95-4.35,3.55,5.44,10.12,10.17,4.01,3.63-4.68-.75-7.23-4.92-6.97Z"/>
            <path class="cls-9" d="M13.44,65.93h0c-2.88,0-5.85-1.77-6.63-3.95-.47-1.33-.08-2.6,1.1-3.56.41-.3.69-.65.99-1.02.8-1,1.7-2.14,4.62-2.06.2-.01.41-.02.61-.02,2.74,0,5.05,1.09,5.88,2.79.5,1.02.72,2.74-1.12,5.11-1.74,2.24-3.92,2.71-5.45,2.71h0ZM13.24,56.46c-2.14,0-2.75.76-3.45,1.64-.33.42-.68.85-1.18,1.21-.78.64-1.03,1.42-.72,2.29.55,1.54,2.91,3.2,5.56,3.2h0c1.27,0,3.1-.39,4.55-2.28.82-1.05,1.65-2.59,1-3.92-.63-1.29-2.59-2.16-4.86-2.16-.19,0-.38,0-.56.02-.02,0-.04,0-.05,0-.09,0-.19,0-.28,0h0Z"/>
          </g>
          <path class="cls-14" d="M13.81,63.4c-1.37,0-2.85-.59-3.77-1.5-.22-.22-.23-.58,0-.8.22-.22.58-.22.8,0,.59.59,1.74,1.18,2.98,1.18,1.13,0,2.02-.45,2.75-1.38.19-.25.55-.29.79-.1.25.19.29.55.1.79-.94,1.21-2.16,1.82-3.64,1.82h0Z"/>
        </g>
        <g>
          <g>
            <path class="cls-13" d="M34,35.39c-2.1-1.95-6.47-1.04-8.57-.95l.04.03c-2.84.42-5.04,4.19-1.99,6.22,2.49,1.66,7.62.8,8.8.49,2.96-.79,4.37-3.33,1.72-5.79Z"/>
            <path class="cls-9" d="M27.91,42.24c-2.07,0-3.66-.37-4.74-1.09-1.37-.91-1.97-2.28-1.64-3.74.38-1.68,1.87-3.1,3.6-3.46.08-.05.17-.08.27-.08.38-.02.84-.06,1.36-.11.88-.09,1.88-.18,2.9-.18,2.16,0,3.71.46,4.71,1.39,1.28,1.19,1.81,2.53,1.49,3.8-.34,1.36-1.63,2.47-3.45,2.95-.79.21-2.64.52-4.51.52h0ZM25.69,34.99s-.09.03-.14.04c-1.37.2-2.62,1.33-2.92,2.63-.16.71-.09,1.72,1.16,2.55.88.59,2.3.9,4.11.9s3.52-.3,4.22-.48c1.42-.38,2.41-1.18,2.64-2.13.21-.86-.19-1.79-1.17-2.69-.79-.73-2.08-1.09-3.94-1.09-.97,0-1.94.09-2.79.17-.42.04-.83.08-1.19.1h0Z"/>
          </g>
          <path class="cls-5" d="M27.95,40.21c-1.18,0-3.51-.44-3.86-2.08-.06-.27.12-.53.38-.58.27-.05.53.12.59.38.18.89,1.8,1.29,2.89,1.29.67,0,1.49-.12,2.19-.32.26-.08.54.08.61.34.08.26-.08.54-.34.61-.78.22-1.7.36-2.46.36h0Z"/>
        </g>
        <g>
          <g>
            <path class="cls-6" d="M24.46,67.64c-2.47,1.14-5.89-1.27-8.34.83-2.53,2.17-.79,6.07,2.8,6.36,1.28.1,5.32.24,7.37-1.73,2.22-2.14.99-6.75-1.82-5.46Z"/>
            <path class="cls-9" d="M20.22,75.45h0c-.58,0-1.05-.03-1.34-.05-2.05-.17-3.74-1.43-4.32-3.22-.49-1.52-.05-3.07,1.2-4.14.83-.71,1.8-1.04,3.06-1.04.71,0,1.42.1,2.11.2.66.09,1.29.19,1.88.19s1.04-.09,1.44-.27c.4-.18.79-.28,1.17-.28.99,0,1.85.65,2.29,1.74.57,1.41.41,3.56-1.01,4.92-1.67,1.61-4.43,1.94-6.46,1.94h0ZM18.81,68.14c-.99,0-1.7.24-2.32.76-.9.77-1.21,1.84-.86,2.93.44,1.35,1.75,2.31,3.34,2.44.27.02.71.05,1.25.05h0c1.49,0,4.21-.21,5.68-1.62,1.04-1,1.16-2.65.74-3.68-.16-.38-.52-1.03-1.24-1.03-.21,0-.45.06-.7.17-.55.25-1.17.37-1.91.37-.67,0-1.37-.1-2.04-.2-.65-.09-1.32-.19-1.95-.19h0Z"/>
          </g>
          <path class="cls-10" d="M20.62,73.29c-1.36,0-2.68-.41-3.45-1.51-.17-.24-.11-.57.13-.74.24-.17.57-.11.74.13,1.14,1.64,4.12,1.07,5.46.4.26-.13.58-.03.71.24.13.26.02.58-.24.71-.89.44-2.13.77-3.35.77h0Z"/>
        </g>
        <g>
          <g>
            <path class="cls-8" d="M11.09,45.26c-1.68,3.49,8.58,9.83,12.77,3.71,4.19-6.12-11.1-7.41-12.77-3.71Z"/>
            <path class="cls-9" d="M18.91,52.09h0c-3.37,0-6.69-2.09-7.96-4.12-.67-1.06-.8-2.09-.37-2.96.79-1.75,3.8-2.38,6.34-2.38,3.14,0,6.8.93,7.9,3.02.4.75.64,2-.49,3.64-1.26,1.83-3.13,2.8-5.42,2.8h0ZM16.92,43.76c-2.71,0-4.85.7-5.31,1.73-.32.65,0,1.38.31,1.88,1.08,1.72,4.07,3.59,7,3.59h0c1.32,0,3.17-.4,4.48-2.31.65-.95.79-1.78.42-2.47-.75-1.42-3.59-2.42-6.9-2.42h0Z"/>
          </g>
          <path class="cls-3" d="M19.84,49.83c-2.74,0-5.51-1.72-6.51-3.31-.17-.27-.09-.62.18-.78.27-.17.61-.09.78.18.83,1.32,3.31,2.79,5.55,2.79.31,0,.57.25.57.57s-.25.57-.57.57h0Z"/>
        </g>
        <g>
          <g>
            <path class="cls-3" d="M48.14,29.84c-2.24-2.7-5.78-2.46-8.6-.86-3.85,2.19-2.32,6.63,1.23,7.98,2.39.91,6.86,0,8.34-2.31.89-1.39,0-3.65-.97-4.81Z"/>
            <path class="cls-9" d="M42.94,37.88h0c-.89,0-1.71-.13-2.37-.39-2.14-.81-3.68-2.71-3.83-4.71-.13-1.73.79-3.3,2.53-4.28,1.46-.83,3-1.27,4.46-1.27,1.95,0,3.63.78,4.85,2.26,1.06,1.27,2.07,3.82,1.01,5.48-1.28,2-4.34,2.92-6.64,2.92h0ZM43.73,28.36c-1.26,0-2.61.39-3.9,1.12-1.36.77-2.06,1.92-1.96,3.21.12,1.58,1.37,3.08,3.11,3.74.53.2,1.21.31,1.97.31,2.06,0,4.68-.82,5.69-2.39.71-1.11-.08-3.12-.93-4.14-1-1.21-2.38-1.85-3.98-1.85h0Z"/>
          </g>
          <path class="cls-2" d="M43.38,35.63c-.58,0-1.11-.08-1.5-.23-1.28-.49-2.24-1.62-2.33-2.76-.02-.27.18-.5.44-.52.27-.02.5.18.52.44.06.77.78,1.58,1.71,1.94.28.11.7.17,1.16.17.79,0,1.61-.16,2.33-.46.25-.1.53.02.63.26.1.25-.01.53-.26.63-.83.34-1.78.53-2.7.53h0Z"/>
        </g>
      </g>
    </g>
  </g>
</svg>