<?xml version="1.0" encoding="UTF-8"?>
<svg id="Layer_2" data-name="Layer 2" xmlns="http://www.w3.org/2000/svg" viewBox="0 0 89.91 87.19">
  <defs>
    <style>
      .cls-1 {
        fill: #6fc9f3;
      }

      .cls-2 {
        fill: #c969a5;
      }

      .cls-3 {
        fill: #c3c4c4;
      }

      .cls-4 {
        fill: #fff;
      }

      .cls-5 {
        fill: #980583;
      }

      .cls-6 {
        fill: #ffd900;
      }

      .cls-7 {
        fill: #5cb531;
      }

      .cls-8 {
        fill: #fff100;
      }

      .cls-9 {
        fill: #231916;
      }

      .cls-10 {
        fill: #ea5532;
      }
    </style>
  </defs>
  <g id="Left_Folio" data-name="Left Folio">
    <g>
      <g>
        <g>
          <path class="cls-2" d="M89.25,81.96l-7.96-22c-.68-1.88-2.85-3.49-4.82-3.58l-27.95-1.26c-1.97-.09-3.58,1.45-3.58,3.42,0-1.97-1.61-3.51-3.58-3.42l-27.95,1.26c-1.97.09-4.13,1.7-4.81,3.58L.66,81.96c-.68,1.88.37,3.34,2.34,3.25l38.4-1.69c-.05.21-.1.43-.17.65l-.22.77c-.29,1,.55,1.8,1.86,1.8h4.17c1.31,0,2.16-.79,1.86-1.8l-.22-.77c-.07-.23-.11-.45-.17-.65l38.4,1.69c1.97.09,3.02-1.38,2.34-3.25Z"/>
          <path class="cls-5" d="M89.41,83.45c-.94.06-1.73.09-2.29.09-.05,0-.1,0-.14,0l-38.4-1.69s-.05,0-.08,0c-.51,0-.99.23-1.31.63-.34.42-.45.97-.32,1.49l.05.21c.04.16.08.32.13.49l.12.4s-.09,0-.14,0h-4.17c-.05,0-.1,0-.14,0l.12-.41c.05-.17.09-.33.13-.49l.05-.21c.14-.52.02-1.07-.32-1.49-.32-.4-.8-.63-1.31-.63-.03,0-.05,0-.08,0l-38.4,1.69s-.08,0-.14,0c-.56,0-1.35-.03-2.29-.09.18,1.1,1.1,1.83,2.5,1.77l38.4-1.69c-.05.21-.1.43-.17.65l-.22.77c-.29,1,.55,1.8,1.86,1.8h4.17c1.31,0,2.16-.79,1.86-1.8l-.22-.77c-.07-.23-.11-.45-.17-.65l38.4,1.69c1.4.06,2.32-.67,2.5-1.77Z"/>
          <path class="cls-9" d="M47.04,87.19h-4.17c-.88,0-1.63-.32-2.04-.87-.32-.43-.41-.96-.25-1.51l.23-.77s0-.03.01-.05l-37.79,1.67c-1.12.05-2.04-.34-2.57-1.1-.52-.74-.6-1.72-.22-2.76l7.96-22c.74-2.04,3.08-3.78,5.22-3.87l27.95-1.26c1.57-.08,2.93.76,3.6,2.02.67-1.27,2.02-2.1,3.6-2.02l27.95,1.26c2.14.1,4.48,1.83,5.22,3.87l7.96,22c.38,1.04.3,2.02-.22,2.76-.5.71-1.34,1.1-2.38,1.1h0c-.06,0-.12,0-.19,0l-37.79-1.67s0,.03.01.05l.22.77c.16.54.07,1.08-.25,1.51-.41.55-1.16.87-2.04.87h0ZM41.4,83.07c.14,0,.27.06.35.17.09.11.12.26.08.4l-.06.22c-.04.14-.07.29-.12.44l-.22.77c-.08.27-.04.51.11.71.24.32.73.51,1.32.51h4.17c.59,0,1.08-.19,1.32-.51.15-.2.19-.44.11-.71l-.23-.77c-.04-.15-.08-.29-.11-.43-.02-.08-.04-.16-.06-.23-.04-.14,0-.29.08-.4.09-.11.23-.17.37-.17l38.4,1.69c.05,0,.1,0,.15,0h0c.73,0,1.31-.25,1.64-.72.34-.49.38-1.18.11-1.93l-7.96-22c-.61-1.7-2.63-3.2-4.41-3.28l-27.95-1.26c-1.72-.07-3.11,1.25-3.11,2.97,0,.25-.2.45-.45.45s-.45-.2-.45-.45c0-1.71-1.38-3.03-3.11-2.97l-27.95,1.26c-1.78.08-3.8,1.58-4.41,3.28l-7.96,22c-.27.76-.23,1.44.11,1.93.35.5.99.75,1.79.72l38.4-1.69s.01,0,.02,0h0Z"/>
        </g>
        <g>
          <g>
            <path class="cls-4" d="M5.82,81.19c-.92.04-1.4-.64-1.08-1.5l9.46-25.17c7.43-5.88,25.42-9.35,30.76-.3v25.49l-39.14,1.48Z"/>
            <path class="cls-9" d="M5.75,81.64c-.57,0-1.04-.22-1.32-.62-.28-.41-.32-.94-.12-1.49l9.46-25.17c.03-.08.08-.14.14-.2,4.41-3.49,12.08-5.93,18.65-5.93,6.05,0,10.59,2.04,12.78,5.76.04.07.06.15.06.23v25.49c0,.24-.19.44-.44.45l-39.22,1.48h0ZM14.57,54.8l-9.41,25.05c-.1.27-.1.5.01.66.1.15.31.24.58.24h.05s38.7-1.46,38.7-1.46v-24.93c-2.05-3.36-6.28-5.21-11.94-5.21-6.33,0-13.7,2.32-17.99,5.66h0Z"/>
            <path class="cls-3" d="M6.45,79.92c-.15,0-.29-.07-.38-.21-.14-.21-.08-.49.13-.62,8.71-5.66,28.34-8.6,37.63-1.06.19.16.22.44.06.63-.16.19-.44.22-.63.07-8.99-7.3-28.08-4.4-36.56,1.12-.08.05-.16.07-.25.07h0Z"/>
          </g>
          <g>
            <path class="cls-4" d="M84.09,81.19c.92.04,1.4-.64,1.08-1.5l-9.46-25.17c-7.43-5.88-25.42-9.35-30.76-.3v25.49l39.14,1.48Z"/>
            <path class="cls-9" d="M84.16,81.64h-.08s-39.14-1.48-39.14-1.48c-.24,0-.43-.21-.43-.45v-25.49c0-.08.02-.16.06-.23,2.19-3.71,6.73-5.76,12.78-5.76,6.56,0,14.23,2.44,18.65,5.93.07.05.11.12.14.2l9.46,25.17c.21.55.17,1.08-.12,1.49-.28.4-.75.62-1.32.62h0ZM45.41,79.28l38.75,1.46c.27,0,.47-.08.58-.24.11-.16.11-.39.01-.66l-9.41-25.05c-4.29-3.34-11.66-5.66-17.99-5.66-5.66,0-9.9,1.85-11.94,5.21v24.93h0Z"/>
            <path class="cls-3" d="M83.46,79.92c-.08,0-.17-.02-.25-.07-8.48-5.52-27.58-8.42-36.56-1.12-.19.16-.48.13-.64-.07-.16-.19-.13-.48.07-.63,9.28-7.54,28.92-4.6,37.62,1.06.21.14.27.42.13.62-.09.13-.23.21-.38.21h0Z"/>
          </g>
        </g>
      </g>
      <g>
        <path class="cls-6" d="M33.82,64.67c2.31-3.28,3.41-7.23,3.13-11.29-.33-4.68-2.46-8.95-6-12.03-3.2-2.78-7.29-4.31-11.52-4.31-5.09,0-9.92,2.2-13.26,6.04-3.08,3.54-4.59,8.07-4.27,12.74.33,4.68,2.46,8.95,5.99,12.03,3.2,2.78,7.29,4.31,11.52,4.31,4.47,0,8.74-1.7,11.97-4.71l3.31.97s.08.02.13.02c.13,0,.25-.06.34-.16.12-.13.14-.32.07-.48l-1.42-3.14Z"/>
        <path class="cls-10" d="M13.49,56.33c-.12-1.68-.25-3.85-1.11-5.37-.75-1.33-.67-2.7,1.13-3.71,1.76-1,3.84.09,5.35.92.66.36,7.04,4.53,8.67,5.7,1.5,1.09,2.09-.42,2.71.68.8,1.41-2.11,2.97-3.12,3.54-2.89,1.63-4.64,2.6-5.32,1.4-.52-.92.91-1.27.53-1.95-.49-.87-1.04-.66-4.3,1.18-1.05.59-1.66.99-1.12,1.93.42.75,1.44-.48,2,.52.65,1.15-1.52,2.41-2.33,2.87-2.89,1.64-3.45,1.26-3.8.65-.51-.9.73-1.25.93-2.28.15-.77.05-1.94,0-2.72l-.22-3.36ZM18.52,55.31c.2-.11.83-.42.67-.71-.16-.29-1.32-.96-1.63-1.14-.36-.2-1.1-.72-1.55-.47-.49.27-.18,1.62-.14,1.88.04.26.12,1.2.25,1.43.18.33.66-.02.88-.14l1.52-.86Z"/>
      </g>
      <g>
        <path class="cls-1" d="M69.05,10.31c-3.41-5.14-8.62-8.63-14.66-9.85-1.51-.31-3.06-.46-4.59-.46-10.93,0-20.44,7.79-22.6,18.52-2.36,11.7,4.62,23.15,15.79,26.61l1.06,4.52c.04.17.18.3.35.34.03,0,.06,0,.09,0,.14,0,.28-.07.37-.19l2.73-3.76c.75.08,1.51.11,2.26.11,10.93,0,20.44-7.79,22.6-18.52,1.22-6.04,0-12.2-3.4-17.34Z"/>
        <path class="cls-4" d="M55.07,24.13c2.02,1.23,3.37,2.57,4.06,4.04.69,1.46.72,3.05.09,4.75-.71,1.91-1.97,3.15-3.77,3.73-1.8.58-4.31.27-7.54-.94l-11.59-4.32.72-1.92c1.16.43,2.01.53,2.53.28.53-.25,1-.94,1.43-2.08l5.14-13.78c.41-1.11.52-1.93.31-2.47-.21-.54-.91-1.03-2.12-1.48l.72-1.92,8.59,2.91,1.21.45c3.82,1.43,6.24,2.91,7.26,4.43,1.01,1.53,1.19,3.17.54,4.91-.49,1.32-1.37,2.26-2.63,2.83-1.26.57-2.91.77-4.95.6ZM49.24,23.23l-2.49,6.67c-.24.65-.36,1.16-.36,1.54,0,.38.14.75.42,1.12.28.36.75.66,1.41.91,1.03.39,1.95.29,2.76-.29.8-.58,1.5-1.65,2.07-3.2.46-1.24.65-2.27.58-3.09-.08-.82-.36-1.47-.86-1.93-.5-.46-1.32-.91-2.47-1.34l-1.06-.4ZM50.03,21.11l1.12.42c1.2.45,2.2.48,3.01.1.81-.38,1.49-1.3,2.03-2.77.41-1.1.55-2.03.42-2.81-.13-.77-.47-1.37-1-1.77-.53-.41-1.39-.83-2.56-1.27l-3.02,8.1Z"/>
      </g>
      <g>
        <path class="cls-7" d="M77.03,48.91c-2.27-2.43-5.48-3.82-8.8-3.82-3.07,0-5.99,1.15-8.23,3.25-2.35,2.2-3.71,5.18-3.81,8.4-.09,2.57.63,5.04,2.04,7.12l-1.18,2.87c-.07.16-.03.35.09.48.09.09.21.14.33.14.05,0,.1,0,.14-.02l2.88-.96c2.16,1.8,4.91,2.82,7.74,2.82h0c3.07,0,5.99-1.16,8.23-3.25,2.35-2.2,3.71-5.18,3.81-8.4.11-3.22-1.04-6.28-3.24-8.63Z"/>
        <path class="cls-8" d="M73.72,52.89c-.11-.17-.3-.28-.55-.32-.5-.08-.8.14-.87.6,0,.02,0,.04,0,.05,0,.03,0,.1,0,.19-.69-.77-1.62-1.26-2.77-1.45-1.63-.27-3.05.03-4.22.89-1.17.86-1.9,2.14-2.18,3.81-.27,1.62,0,3.01.83,4.15.82,1.14,2.06,1.85,3.68,2.12.42.07.83.1,1.21.1.91,0,1.73-.2,2.45-.58,1.03-.56,1.65-1.42,1.84-2.54.05-.29,0-.52-.14-.71-.14-.18-.36-.29-.65-.34-.08-.01-.15-.02-.21-.02-.26,0-.71.1-.82.77-.08.45-.2.8-.37,1.04-.26.36-.65.63-1.16.8-.53.17-1.11.21-1.73.1-1.14-.19-1.97-.69-2.48-1.51-.51-.82-.66-1.9-.45-3.2.21-1.27.69-2.23,1.43-2.84.73-.6,1.64-.82,2.73-.64.83.14,1.48.46,1.92.95.43.48.58,1.03.45,1.68l-.09.53c-.05.26-.02.48.1.65.13.18.34.29.63.34.07.01.13.02.2.02.25,0,.68-.1.79-.75l.05-.75c.01-.27.04-.54.08-.8.03-.18.11-.51.25-1,.09-.4.14-.64.16-.72.04-.26,0-.48-.1-.64Z"/>
      </g>
    </g>
  </g>
</svg>