<?xml version="1.0" encoding="UTF-8"?>
<svg id="Layer_2" data-name="Layer 2" xmlns="http://www.w3.org/2000/svg" viewBox="0 0 91.1 88.35">
  <defs>
    <style>
      .cls-1 {
        fill: #6fc9f3;
      }

      .cls-2 {
        fill: #006ebb;
      }

      .cls-3 {
        fill: #c3c4c4;
      }

      .cls-4 {
        fill: #fff;
      }

      .cls-5 {
        fill: #e9538e;
      }

      .cls-6 {
        fill: #fcc800;
      }

      .cls-7 {
        fill: #8d0c84;
      }

      .cls-8 {
        fill: #e94b34;
      }

      .cls-9 {
        fill: #fff100;
      }

      .cls-10 {
        fill: #009d88;
      }

      .cls-11 {
        fill: #e6002b;
      }

      .cls-12 {
        fill: #231916;
      }

      .cls-13 {
        fill: #95c96a;
      }

      .cls-14 {
        fill: #4ab134;
      }
    </style>
  </defs>
  <g id="Left_Folio" data-name="Left Folio">
    <g>
      <g>
        <g>
          <path class="cls-13" d="M90.44,83.05l-8.06-22.29c-.69-1.9-2.88-3.53-4.88-3.62l-28.32-1.28c-2-.09-3.63,1.47-3.63,3.46,0-1.99-1.63-3.55-3.62-3.46l-28.32,1.28c-2,.09-4.19,1.72-4.88,3.62L.67,83.05c-.69,1.9.38,3.39,2.37,3.3l38.91-1.71c-.05.21-.1.43-.17.66l-.23.78c-.3,1.02.56,1.82,1.89,1.82h4.23c1.33,0,2.18-.8,1.88-1.82l-.23-.78c-.07-.23-.12-.45-.17-.66l38.91,1.71c1.99.09,3.06-1.39,2.37-3.3Z"/>
          <path class="cls-14" d="M90.6,84.56c-.95.06-1.76.09-2.32.09-.06,0-.1,0-.14,0l-38.91-1.72s-.05,0-.08,0c-.51,0-1,.23-1.33.63-.34.42-.46.98-.32,1.51l.05.21c.04.16.08.33.13.5l.12.41s-.09,0-.14,0h-4.23c-.05,0-.1,0-.14,0l.12-.41c.05-.17.09-.33.13-.49l.05-.21c.14-.53.02-1.09-.32-1.51-.33-.4-.81-.63-1.33-.63-.03,0-.05,0-.08,0l-38.91,1.72s-.08,0-.14,0c-.56,0-1.36-.03-2.32-.09.18,1.11,1.12,1.85,2.54,1.79l38.91-1.71c-.05.21-.1.43-.17.66l-.23.78c-.3,1.02.56,1.82,1.89,1.82h4.23c1.33,0,2.18-.8,1.88-1.82l-.23-.78c-.07-.23-.12-.45-.17-.66l38.91,1.71c1.42.06,2.35-.67,2.54-1.79Z"/>
          <path class="cls-12" d="M47.67,88.35h-4.23c-.9,0-1.65-.32-2.07-.88-.33-.44-.42-.98-.26-1.53l.23-.78s0-.03.01-.05l-38.29,1.69c-1.13.06-2.06-.35-2.6-1.11-.52-.75-.6-1.74-.22-2.79l8.06-22.29c.75-2.07,3.12-3.83,5.29-3.92l28.32-1.28c1.6-.08,2.97.77,3.65,2.05.68-1.28,2.06-2.13,3.65-2.05l28.32,1.28c2.17.1,4.54,1.86,5.29,3.92l8.06,22.29c.38,1.05.3,2.05-.22,2.79-.51.72-1.36,1.12-2.41,1.12h0c-.06,0-.12,0-.19,0l-38.29-1.69s0,.03.01.05l.23.78c.16.55.07,1.09-.26,1.53-.42.56-1.17.88-2.07.88h0ZM41.95,84.17c.14,0,.27.06.36.17.09.11.12.26.09.4-.02.08-.04.15-.06.23-.03.14-.07.29-.11.44l-.23.78c-.08.27-.04.52.11.72.24.32.74.51,1.34.51h4.23c.59,0,1.09-.19,1.33-.51.15-.21.19-.45.11-.72l-.23-.78c-.05-.15-.08-.3-.12-.45l-.06-.22c-.04-.14,0-.29.09-.4.09-.11.23-.18.38-.17l38.91,1.71c.05,0,.1,0,.15,0h0c.74,0,1.33-.26,1.66-.73.35-.5.39-1.19.11-1.96l-8.06-22.29c-.62-1.72-2.67-3.24-4.47-3.32l-28.32-1.28c-1.76-.08-3.15,1.27-3.15,3.01,0,.25-.2.46-.46.46s-.46-.21-.46-.46c0-1.73-1.4-3.07-3.15-3.01l-28.32,1.28c-1.8.08-3.85,1.6-4.47,3.32L1.1,83.21c-.28.77-.24,1.46.11,1.96.35.5,1,.76,1.81.73l38.91-1.71s.01,0,.02,0h0Z"/>
        </g>
        <g>
          <g>
            <path class="cls-4" d="M5.89,82.26c-.93.04-1.42-.65-1.1-1.52l9.58-25.5c7.53-5.96,25.75-9.48,31.17-.31v25.83l-39.66,1.5Z"/>
            <path class="cls-12" d="M5.83,82.72c-.58,0-1.05-.22-1.34-.63-.29-.41-.33-.95-.12-1.51l9.58-25.5c.03-.08.08-.15.14-.2,4.47-3.54,12.24-6.01,18.89-6.01,6.13,0,10.73,2.07,12.95,5.83.04.07.06.15.06.23v25.83c0,.25-.19.45-.44.46l-39.74,1.5h0ZM14.77,55.53l-9.54,25.38c-.1.27-.1.5.01.66.11.15.31.24.58.24h.05s39.22-1.48,39.22-1.48v-25.26c-2.07-3.4-6.37-5.28-12.1-5.28-6.41,0-13.88,2.36-18.23,5.74h0Z"/>
            <path class="cls-3" d="M6.54,80.98c-.15,0-.3-.07-.38-.21-.14-.21-.08-.5.13-.63,8.82-5.74,28.72-8.72,38.12-1.08.2.16.23.45.07.64-.16.2-.45.22-.64.07-9.11-7.4-28.45-4.46-37.05,1.13-.08.05-.16.07-.25.07h0Z"/>
          </g>
          <g>
            <path class="cls-4" d="M85.21,82.26c.93.04,1.42-.65,1.1-1.52l-9.58-25.5c-7.52-5.96-25.75-9.48-31.17-.31v25.83l39.66,1.5Z"/>
            <path class="cls-12" d="M85.28,82.72h-.08s-39.66-1.5-39.66-1.5c-.25,0-.44-.21-.44-.46v-25.83c0-.08.02-.16.06-.23,2.22-3.76,6.82-5.83,12.95-5.83,6.65,0,14.42,2.47,18.89,6.01.07.05.12.12.14.2l9.59,25.5c.21.56.17,1.09-.12,1.51-.28.41-.76.63-1.34.63h0ZM46.01,80.33l39.27,1.48c.27,0,.48-.08.59-.24.11-.16.12-.39.01-.66l-9.54-25.38c-4.34-3.38-11.81-5.74-18.23-5.74-5.74,0-10.03,1.87-12.1,5.28v25.26h0Z"/>
            <path class="cls-3" d="M84.57,80.98c-.09,0-.17-.02-.25-.07-8.6-5.59-27.94-8.53-37.05-1.13-.2.16-.48.13-.64-.07-.16-.2-.13-.49.07-.64,9.41-7.64,29.3-4.66,38.12,1.08.21.14.27.42.13.63-.09.13-.23.21-.38.21h0Z"/>
          </g>
        </g>
      </g>
      <g>
        <path class="cls-5" d="M78.05,49.56c-2.3-2.46-5.55-3.87-8.92-3.87-3.11,0-6.07,1.17-8.34,3.29-2.38,2.23-3.76,5.25-3.87,8.51-.09,2.6.64,5.1,2.07,7.22l-1.19,2.91c-.07.17-.03.35.09.48.09.09.21.15.33.15.05,0,.1,0,.15-.02l2.92-.97c2.18,1.83,4.97,2.86,7.84,2.86h0c3.11,0,6.07-1.17,8.34-3.29,2.38-2.23,3.75-5.25,3.86-8.51.11-3.26-1.06-6.37-3.29-8.75Z"/>
        <path class="cls-9" d="M68.15,55.17l-3.59-1.42c.53-.85,1.3-1.42,2.3-1.7,1-.28,2.3-.22,3.91.17,1.85.45,3.11,1.04,3.8,1.78.69.74.94,1.52.74,2.33-.12.48-.39.87-.82,1.18-.43.31-1.02.52-1.76.65.52.24.91.46,1.16.68.41.34.7.73.88,1.16.17.43.19.91.07,1.42-.16.65-.52,1.21-1.1,1.7-.58.49-1.31.79-2.2.91-.89.12-1.99.02-3.31-.3-1.29-.31-2.27-.68-2.95-1.1-.69-.41-1.21-.91-1.58-1.48-.37-.57-.6-1.24-.68-1.99l4.03.55c0,.66.14,1.14.4,1.46.27.32.65.54,1.15.66.53.13,1,.08,1.43-.13.42-.22.7-.58.82-1.08.13-.51.05-.95-.21-1.32-.27-.36-.69-.62-1.27-.76-.31-.07-.75-.12-1.32-.13l.74-2.15c.21.08.38.13.5.16.51.12.97.1,1.38-.07.41-.17.65-.43.74-.79.08-.34.02-.64-.19-.9-.21-.26-.54-.45-.99-.56-.46-.11-.87-.09-1.21.05-.34.15-.63.49-.87,1.01Z"/>
      </g>
      <g>
        <path class="cls-1" d="M34.26,65.53c2.34-3.33,3.46-7.32,3.17-11.44-.33-4.74-2.49-9.07-6.07-12.19-3.24-2.82-7.38-4.37-11.67-4.37-5.16,0-10.05,2.23-13.43,6.12-3.12,3.59-4.65,8.17-4.32,12.91.33,4.74,2.49,9.07,6.08,12.19,3.24,2.82,7.38,4.37,11.67,4.37,4.53,0,8.85-1.72,12.13-4.77l3.36.99s.09.02.13.02c.13,0,.26-.06.35-.16.12-.14.14-.33.07-.49l-1.44-3.18Z"/>
        <g>
          <path class="cls-4" d="M21.25,64.09l.12-.52c3.23-1.04,5.14-2.39,5.62-4.03.14-.48.12-.91-.06-1.27-.18-.37-.5-.62-.95-.75-.37-.1-.71-.09-1.02.04-.31.13-.5.32-.57.58-.08.3-.04.6.1.88.03.06.04.1.04.13-.01.04-.09.07-.23.07-.09,0-.33,0-.7.02-.37.02-.59.02-.67,0-.1-.03-.18-.17-.25-.43-.07-.26-.07-.53,0-.79.14-.61.62-1.02,1.41-1.22.81-.2,1.73-.16,2.78.14,1.03.29,1.82.75,2.39,1.37.56.62.72,1.26.51,1.92-.13.39-.36.73-.7,1.02-.34.29-1.05.68-2.12,1.16-1.05.47-2.05.89-2.99,1.26l4.34,1.22-.13,1.63-.93-.26c.05-.07.09-.13.11-.19.03-.1.01-.18-.05-.23-.07-.05-.08-.07-.31-.13l-5.7-1.61Z"/>
          <path class="cls-8" d="M12.02,50.97c-.21-.51-.55-1.14-1.08-.92-.38.16-.59.77-.91.9-.36.15-.69-.31-.83-.66-.41-.98-.03-1.52.48-2.19.82-1.08,3.3-3.33,4.46-3.81.6-.25,1.06-.25,1.39.55.2.49.08.88-.13,1.28-.3.48-.28.57-.11,1.24.5,1.98,1.12,3.88,1.82,5.86.4,1.11.92,1.39,1.83,1.2.58-.1,1.02-.19,1.23.62.45,1.76-3.77,2.81-4.74,3.06-.81.21-3.38,1.02-3.78-.55-.21-.84.18-1.03.74-1.24.53-.23.72-.32.83-1.01.09-.53-.23-1.3-.4-1.85l-.81-2.49Z"/>
        </g>
      </g>
      <g>
        <path class="cls-6" d="M69.96,10.45c-3.46-5.2-8.74-8.75-14.86-9.98-1.53-.31-3.1-.47-4.65-.47-11.08,0-20.71,7.89-22.9,18.77-1.23,6.12-.01,12.36,3.45,17.57,3.02,4.54,7.41,7.81,12.55,9.4l1.08,4.58c.04.17.18.31.35.34.03,0,.06.01.09.01.14,0,.28-.07.37-.19l2.77-3.81c.76.08,1.53.11,2.29.11,11.08,0,20.71-7.9,22.9-18.77,1.24-6.12.01-12.36-3.44-17.57Z"/>
        <g>
          <g>
            <path class="cls-7" d="M36.82,17.57l-.38-4.55,15.14-1.71.38,4.55-15.14,1.71Z"/>
            <polygon class="cls-7" points="47.44 22.03 42.66 22.39 41.53 6.92 46.31 6.56 47.44 22.03"/>
          </g>
          <path class="cls-2" d="M52.34,38.97c-.18.16-.35.21-.54.2-.21-.01-.41-.13-.62-.33-.18-.2-.27-.44-.26-.67,0-.19.11-.38.26-.54l4.34-3.9-2.83-3.19c-.16-.18-.23-.37-.22-.56.01-.23.13-.44.33-.61.2-.18.44-.27.67-.26.19.01.4.11.55.28l2.81,3.2,4.61-4.12c.2-.16.39-.23.58-.22.23.01.46.13.62.33.2.22.29.44.28.65-.01.19-.1.35-.31.53l-4.61,4.12,3.94,4.37c.18.2.25.4.24.59-.01.23-.13.44-.35.61-.2.18-.42.27-.65.26-.19-.01-.37-.11-.56-.29l-3.94-4.37-4.37,3.92Z"/>
          <path class="cls-10" d="M66.76,15.93l.38.77-9.99,4.28-.38-.77,9.99-4.28ZM62.13,15.22c.32.74-.01,1.6-.77,1.92-.75.32-1.61-.03-1.93-.79-.32-.74.02-1.58.78-1.9s1.6.02,1.92.77ZM64.42,20.55c.32.73-.01,1.6-.77,1.92-.74.31-1.61-.04-1.92-.77-.32-.75.02-1.6.77-1.92.75-.32,1.6.02,1.92.77Z"/>
          <path class="cls-11" d="M45.65,32.06c-.12-.3-.4-.57-.72-.7l-8.71-3.46c-.29-.12-.59-.1-.78.04l-.99.78c-.21.16-.27.45-.14.75.12.3.4.57.72.7l8.71,3.46c.07.03.14.05.21.06.22.04.42,0,.57-.1l1-.78c.21-.16.26-.45.14-.75Z"/>
        </g>
      </g>
    </g>
  </g>
</svg>