<?xml version="1.0" encoding="UTF-8"?>
<svg id="Layer_2" data-name="Layer 2" xmlns="http://www.w3.org/2000/svg" viewBox="0 0 109.99 87.42">
  <defs>
    <style>
      .cls-1 {
        fill: #0086cd;
      }

      .cls-2 {
        fill: #3f3b3a;
      }

      .cls-3 {
        fill: #eb6ba4;
      }

      .cls-4 {
        fill: #e94831;
      }

      .cls-5 {
        fill: #f39a00;
      }

      .cls-6 {
        fill: #4cb999;
      }

      .cls-7 {
        fill: #6fba2c;
      }
    </style>
  </defs>
  <g id="Left_Folio" data-name="Left Folio">
    <g>
      <g>
        <path class="cls-2" d="M18.35,33.58c-5.68,0-11.13-.58-15.49-1.76-.13-.03-.2-.17-.17-.3.03-.13.17-.21.3-.17,9.5,2.57,24.25,2.27,35.08-.7,6.67-1.83,12.43-5.72,18-9.47,5.82-3.92,11.83-7.97,18.93-9.76,4.37-1.1,8.33-1.18,12.16-1.25,6.71-.13,13.04-.26,21.53-5.38.11-.07.26-.03.33.08.07.11.03.26-.08.33-8.59,5.19-15.29,5.32-21.77,5.45-3.8.08-7.74.15-12.06,1.24-7.02,1.76-13,5.8-18.78,9.69-5.6,3.78-11.4,7.68-18.15,9.54-5.94,1.63-13.05,2.46-19.84,2.46h0Z"/>
        <path class="cls-2" d="M18.34,43.9c-5.92,0-11.62-.74-16.17-2.27-.12-.04-.19-.18-.15-.3.04-.13.18-.2.3-.15,10.02,3.4,25.88,2.91,36.7-.82,8.71-3,14.46-8.27,20.05-12.92,5.32-4.43,10.85-8.73,17.87-11.08,4.48-1.5,8.52-1.75,12.43-1.94,6.29-.31,12.17-.48,19.53-5.45.11-.07.26-.05.34.06.07.11.05.26-.06.34-7.45,5.08-13.7,5.24-19.78,5.54-3.88.19-7.89.44-12.31,1.91-6.93,2.32-12.43,6.59-17.72,11-5.62,4.68-11.41,9.98-20.2,13.01-5.99,2.07-13.58,3.09-20.83,3.09h0Z"/>
        <path class="cls-2" d="M18.33,54.21c-6.15,0-12.12-.89-16.84-2.79-.12-.05-.18-.19-.14-.31.05-.12.19-.19.31-.14,10.55,4.25,27.47,3.38,38.32-.93,10.73-4.26,16.52-10.77,22.1-16.38,4.86-4.89,9.87-9.5,16.81-12.4,4.58-1.91,8.7-2.31,12.7-2.63,5.87-.47,11.28-.73,17.54-5.52.1-.08.25-.06.34.04.08.1.07.25-.04.34-6.36,4.9-12.1,5.17-17.8,5.63-3.96.32-8.04.71-12.56,2.59-6.85,2.86-11.82,7.45-16.66,12.3-5.61,5.64-11.44,12.18-22.26,16.49-6.08,2.42-14.11,3.71-21.82,3.71h0Z"/>
        <path class="cls-2" d="M18.32,64.53c-6.39,0-12.61-1.02-17.51-3.3-.12-.06-.17-.2-.12-.32.06-.12.2-.18.32-.12,11.06,5.12,29.02,3.78,39.94-1.04,12.71-5.61,18.62-13.24,24.14-19.83,4.44-5.31,8.88-10.3,15.75-13.72,4.68-2.34,8.88-2.86,12.96-3.32,5.45-.61,10.36-1.03,15.54-5.59.1-.09.25-.08.34.01.09.1.08.25-.02.34-5.3,4.67-10.51,5.13-15.81,5.72-4.04.45-8.21.97-12.81,3.27-6.77,3.38-11.18,8.33-15.6,13.6-5.55,6.63-11.51,14.3-24.32,19.96-6.18,2.73-14.64,4.34-22.82,4.34h0Z"/>
        <path class="cls-2" d="M18.31,74.84c-6.63,0-13.12-1.14-18.18-3.81-.12-.06-.16-.21-.1-.33.06-.12.21-.16.33-.1,11.53,6.08,30.55,4.14,41.56-1.15,14.65-7.04,20.78-15.67,26.19-23.28,4.06-5.71,7.89-11.1,14.68-15.04,4.77-2.77,9.07-3.4,13.23-4,5.04-.73,9.39-1.37,13.55-5.67.09-.1.25-.1.34,0s.1.25,0,.34c-4.27,4.42-8.91,5.09-13.83,5.81-4.12.6-8.37,1.22-13.06,3.94-6.71,3.89-10.51,9.24-14.53,14.91-5.44,7.66-11.61,16.34-26.37,23.43-6.29,3.02-15.17,4.96-23.81,4.96h0Z"/>
      </g>
      <g>
        <g>
          <path class="cls-7" d="M32.62,52.72c-2.22-3.46-7.25-2.78-10.73-1.33,3.04-.65,5.38.46,7.87,4.12,2.38,3.48,2.09,10.27-2.91,13.47,6.03-2.88,9.35-10.68,5.77-16.26Z"/>
          <path class="cls-7" d="M26.85,69.76c-.27,0-.53-.14-.68-.4-.2-.36-.08-.81.26-1.03,1.96-1.25,3.31-3.27,3.8-5.67.49-2.42.07-5-1.11-6.72-1.87-2.74-3.62-3.96-5.67-3.96-.43,0-.9.05-1.39.16-.39.08-.78-.14-.9-.52-.12-.38.07-.79.44-.94,1.92-.8,3.95-1.24,5.73-1.24,2.69,0,4.74.99,5.95,2.87,1.62,2.53,2.03,5.66,1.13,8.8-1.06,3.71-3.76,6.92-7.22,8.58-.11.05-.22.08-.33.08h0ZM26.18,51.05c1.48.69,2.84,2.01,4.21,4.03,1.41,2.06,1.92,5.08,1.35,7.9-.05.25-.11.5-.18.74.58-.94,1.04-1.97,1.35-3.04.77-2.71.43-5.39-.95-7.54-.92-1.43-2.48-2.16-4.65-2.16-.37,0-.75.02-1.14.07h0Z"/>
        </g>
        <g>
          <path class="cls-7" d="M17.34,45.41c-.54.56-1.14,1.11-1.79,1.66-12.07,10.13-10.27,21.63.37,23.61,4.51.84,8.23.04,10.94-1.69-2.48,1.19-5.16,1.3-8.53.68-7.41-1.38-11.65-13.23-.98-24.26Z"/>
          <path class="cls-7" d="M19.42,71.78c-1.18,0-2.4-.12-3.65-.35-4.71-.88-7.99-3.61-9.02-7.5-1.42-5.39,1.68-11.92,8.29-17.46.62-.52,1.2-1.06,1.72-1.6,0,0,0,0,0,0,.3-.31.79-.31,1.09-.02.31.3.31.79.02,1.09h0c-5.21,5.39-7.32,11.73-5.65,16.96,1.03,3.22,3.35,5.46,6.22,6,1.3.24,2.45.36,3.49.36,1.7,0,3.19-.32,4.56-.98.37-.18.81-.03,1.01.32.2.36.08.81-.26,1.02-2.2,1.41-4.91,2.15-7.85,2.15h0ZM11.87,51.87c-3.21,4-4.54,8.14-3.62,11.67.86,3.29,3.71,5.61,7.81,6.37.23.04.47.08.7.12-2.77-1.02-4.96-3.42-5.99-6.66-1.14-3.58-.72-7.59,1.1-11.5h0Z"/>
        </g>
        <g>
          <path class="cls-7" d="M25.99,28.55c.36-3.85-2.6-12.17-7.3-13-.95-.17-1.71.33-2.09,1.61,4.2,1.82,7.15,10.16,6.82,13.74-.44,4.79-2.07,9.26-5,13.31,4.05-4.6,7.05-9.98,7.57-15.66Z"/>
          <path class="cls-7" d="M18.42,44.98c-.17,0-.34-.06-.48-.17-.32-.26-.39-.72-.14-1.06,2.79-3.85,4.42-8.2,4.86-12.93.3-3.23-2.46-11.27-6.35-12.96-.36-.16-.54-.55-.43-.93.46-1.58,1.58-2.4,2.96-2.15,5.24.92,8.33,9.65,7.94,13.83-.49,5.33-3.18,10.9-7.76,16.1-.15.17-.36.26-.58.26h0ZM17.58,16.79c4.31,2.54,6.93,10.71,6.61,14.18-.12,1.33-.34,2.64-.64,3.91.91-2.15,1.48-4.3,1.67-6.4.33-3.56-2.55-11.44-6.67-12.17-.07-.01-.14-.02-.21-.02-.13,0-.47,0-.76.5h0Z"/>
        </g>
        <path class="cls-7" d="M21.22,70.66c-.96,0-1.97-.09-3.03-.29-3.5-.65-6.3-3.27-7.48-6.99-1.83-5.76.48-12.69,6.18-18.56,4.97-5.11,7.86-10.76,8.38-16.34.25-2.75-1.62-8.47-4.09-10.99-.84-.86-1.67-1.27-2.44-1.22-.5.04-.85.21-1.11.54-.47.6-.88,2.09-.19,5.75.07.39-.19.77-.58.84-.39.07-.77-.19-.85-.58-.64-3.41-.48-5.66.47-6.9.51-.66,1.24-1.03,2.15-1.09,1.22-.09,2.42.47,3.58,1.65,2.84,2.91,4.78,9.02,4.49,12.14-.55,5.91-3.58,11.87-8.78,17.22-5.32,5.47-7.5,11.87-5.84,17.11,1.02,3.21,3.4,5.45,6.37,6.01,6.37,1.18,10.98-1.88,13.18-5.14,2.29-3.4,2.43-7.5.38-10.69-.9-1.4-2.31-2.18-4.21-2.33-3.37-.27-7.14,1.54-8.84,3.45-1.95,2.18-2.12,4.71-1.43,6.24.55,1.22,1.59,1.89,2.94,1.89.4,0,.73.33.73.72s-.32.73-.73.73c-1.93,0-3.48-1-4.27-2.75-1.07-2.4-.42-5.46,1.67-7.8,1.91-2.14,6.07-4.24,10.04-3.93,2.34.19,4.18,1.22,5.32,3,2.37,3.69,2.22,8.4-.4,12.29-2.09,3.1-6.11,6.04-11.62,6.04h0Z"/>
        <path class="cls-7" d="M27.14,79.21c-.36,0-.69-.26-.76-.63L15.96,22.83c-.08-.42.2-.82.62-.9.42-.08.82.2.9.62l10.42,55.75c.08.42-.2.82-.62.9-.05,0-.1.01-.14.01h0Z"/>
        <path class="cls-7" d="M22.41,87.42c-1.86,0-3.7-1-4.96-2.8-1.15-1.65-1.39-3.99-.56-5.44.56-.98,1.51-1.48,2.7-1.39.83.06,1.56.59,1.96,1.41.44.92.38,1.99-.16,2.79-.57.84-1.86,1.31-2.92,1.07-.05-.01-.09-.02-.14-.04.11.25.24.49.4.71,1.31,1.88,3.31,2.6,5.12,1.85,1.72-.72,3.3-2.94,2.54-7-.08-.42.2-.82.62-.9.42-.08.82.2.9.62.93,4.97-1.28,7.8-3.46,8.71-.66.28-1.35.41-2.03.41h0ZM18.04,80.42s.02.08.03.12c.14.87.58.97.73,1,.51.11,1.13-.18,1.31-.43.23-.33.25-.82.04-1.24-.15-.32-.41-.53-.67-.54-.58-.04-.99.16-1.25.61-.08.14-.15.3-.19.48h0Z"/>
        <path class="cls-7" d="M19.54,78.56c-1.33-.09-2.06.75-2.29,1.88l.06.23c.39,2.38,2.82,1.79,3.44.88.77-1.13.06-2.9-1.21-2.99Z"/>
      </g>
      <g>
        <g>
          <path class="cls-3" d="M35.29,5.81c2.42-2.14,6.63.84,6.3,3.55-.17,1.42-2.4,1.78-3.51,1.66-2.74-.31-5.18-3.08-2.78-5.2Z"/>
          <path class="cls-3" d="M38.51,11.5c-.18,0-.34,0-.49-.02-1.87-.21-3.57-1.44-4.05-2.94-.35-1.11,0-2.2,1-3.09.63-.56,1.41-.85,2.27-.85,1.31,0,2.73.69,3.72,1.81.82.93,1.21,2,1.09,3-.2,1.65-2.32,2.09-3.54,2.09h0ZM37.24,5.55c-.63,0-1.19.21-1.65.61-.71.63-.96,1.36-.73,2.1.36,1.13,1.76,2.12,3.25,2.28.12.01.25.02.39.02.95,0,2.49-.34,2.61-1.26.09-.72-.22-1.54-.86-2.26-.81-.92-1.97-1.49-3.01-1.49h0Z"/>
        </g>
        <path class="cls-3" d="M41.53,10.04c-.05,0-.11,0-.16-.03-.25-.09-.37-.36-.28-.6L44.4.31c.09-.25.36-.37.6-.28.24.09.37.36.28.6l-3.31,9.09c-.07.19-.25.31-.44.31h0Z"/>
        <g>
          <path class="cls-3" d="M44.84.47l-1.05,2.88c1.12.31,2.18.85,2.69,1.66.69,1.1.84,2.67.43,3.73,0,0,1.55-1.56,1.86-2.88.44-1.89.26-4.8-3.94-5.39Z"/>
          <path class="cls-3" d="M46.91,9.21c-.09,0-.18-.03-.26-.08-.19-.12-.26-.36-.18-.57.37-.94.2-2.36-.39-3.31-.38-.61-1.24-1.12-2.41-1.45-.13-.04-.23-.12-.29-.24-.06-.12-.07-.25-.02-.38l1.05-2.89c.08-.21.29-.34.51-.31,1.77.25,3.05.92,3.79,2,.95,1.38.75,3.08.54,3.97-.34,1.44-1.92,3.04-1.99,3.11-.09.09-.21.14-.33.14h0ZM44.4,3.05c.9.31,1.93.84,2.48,1.71.43.69.68,1.56.72,2.41.32-.45.61-.96.72-1.42.17-.74.35-2.13-.4-3.22-.53-.78-1.46-1.29-2.77-1.54l-.75,2.05h0Z"/>
        </g>
      </g>
      <g>
        <g>
          <path class="cls-6" d="M94.34,57.16c.53,3.19-4.24,5.17-6.35,3.45-1.11-.9-.23-2.98.47-3.86,1.72-2.16,5.36-2.75,5.89.41Z"/>
          <path class="cls-6" d="M89.99,61.72c-.91,0-1.7-.26-2.3-.74-1.45-1.18-.34-3.59.39-4.51.95-1.2,2.45-1.97,3.82-1.97,1.55,0,2.63.97,2.9,2.59.17,1.02-.12,2-.82,2.83-.93,1.09-2.49,1.8-3.99,1.8h0ZM91.91,55.44c-1.08,0-2.32.65-3.08,1.61-.61.77-1.34,2.55-.54,3.2.43.35,1.02.53,1.7.53,1.22,0,2.53-.59,3.27-1.47.36-.43.77-1.14.61-2.07-.25-1.49-1.21-1.8-1.97-1.8h0Z"/>
        </g>
        <path class="cls-6" d="M90.5,70.43c-.21,0-.4-.14-.46-.35l-2.51-9.35c-.07-.25.08-.51.33-.58.25-.07.51.08.58.33l2.51,9.35c.07.25-.08.51-.33.58-.04.01-.08.02-.12.02h0Z"/>
        <g>
          <path class="cls-6" d="M90.5,69.96l-.79-2.97c1.14-.22,2.91-.62,3.74-1.39.95-.88,1.75-1.75,1.39-3.48,0,0,1.2,1.11,1.4,2.45.27,1.92-1.49,5.16-5.73,5.38Z"/>
          <path class="cls-6" d="M90.5,70.43c-.21,0-.4-.14-.46-.35l-.79-2.97c-.03-.13-.01-.26.06-.37.07-.11.18-.19.31-.21,1.77-.33,2.95-.76,3.51-1.27.92-.85,1.55-1.57,1.24-3.04-.04-.2.05-.41.23-.51.18-.1.4-.08.55.06.05.05,1.33,1.24,1.54,2.73.16,1.13-.29,2.5-1.19,3.59-1.15,1.4-2.92,2.23-4.98,2.33h-.02ZM90.29,67.35l.56,2.1c2.07-.21,3.27-1.17,3.93-1.96.87-1.06,1.08-2.17.98-2.85-.06-.4-.22-.79-.42-1.12-.18,1.04-.85,1.75-1.58,2.42-.63.58-1.77,1.04-3.47,1.4h0Z"/>
        </g>
      </g>
      <g>
        <path class="cls-4" d="M50,58.06c-.2,2.94-2.79,5.74-5.79,6.24-2.99.5-5.25-1.48-5.05-4.42.2-2.94,2.79-5.74,5.79-6.24,2.99-.5,5.25,1.48,5.05,4.42Z"/>
        <path class="cls-4" d="M61.84,48.21c-.19,2.7-2.56,5.25-5.3,5.71-2.74.46-4.81-1.35-4.63-4.05.19-2.7,2.56-5.25,5.3-5.71,2.74-.46,4.81,1.35,4.63,4.05Z"/>
        <polygon class="cls-4" points="60.16 24.47 59.64 32 48.82 40.17 49.34 32.64 60.16 24.47"/>
        <path class="cls-4" d="M47.68,56.7s-.03,0-.05,0c-.4-.03-.7-.38-.67-.78l1.66-23.33c.01-.21.12-.4.29-.53l10.83-8.17c.23-.17.53-.19.78-.06.25.14.4.41.38.69l-1.5,21.64c-.03.4-.38.7-.77.67-.4-.03-.7-.37-.67-.77l1.39-20.06-9.3,7.02-1.64,23.01c-.03.38-.34.67-.72.67h0Z"/>
      </g>
      <g>
        <path class="cls-5" d="M74.59,9.25c.43,2.53-1.19,5.43-3.62,6.46-2.43,1.04-4.75-.17-5.18-2.7-.43-2.53,1.19-5.43,3.62-6.46,2.43-1.04,4.74.17,5.18,2.7Z"/>
        <path class="cls-5" d="M71.2,34.87c-.29,0-.54-.21-.59-.5l-4-23.48c-.06-.33.17-.64.49-.7.33-.05.64.17.7.5l4,23.48c.06.33-.17.64-.49.7-.03,0-.07,0-.1,0h0Z"/>
        <g>
          <path class="cls-5" d="M71.2,34.27l-1.02-5.99c1.75.33,4.57-.12,5.48-1.45,1.93-2.79.51-5.76-1.03-7.39,0,0,3.34,1.44,4.4,5.32,1.06,3.89-1.97,8.99-7.83,9.5Z"/>
          <path class="cls-5" d="M71.2,34.79c-.25,0-.47-.18-.51-.43l-1.02-5.99c-.03-.17.03-.34.15-.46.12-.12.29-.17.46-.14,1.52.29,4.2-.12,4.96-1.23,2.17-3.13-.43-6.16-.98-6.74-.17-.18-.19-.45-.05-.65.14-.2.4-.28.63-.18.15.06,3.58,1.58,4.7,5.66.55,2,.08,4.34-1.24,6.24-1.58,2.26-4.08,3.66-7.05,3.92-.02,0-.03,0-.05,0h0ZM70.81,28.88l.82,4.82c2.45-.33,4.5-1.54,5.81-3.42,1.15-1.65,1.56-3.66,1.09-5.37-.4-1.48-1.17-2.58-1.93-3.37.7,1.69.79,3.7-.52,5.59-.9,1.31-3.09,1.78-4.7,1.78-.2,0-.39,0-.58-.02h0Z"/>
        </g>
      </g>
      <g>
        <path class="cls-1" d="M93.64,13.73c0,1.96-1.59,3.93-3.55,4.4-1.96.47-3.55-.74-3.55-2.7s1.59-3.93,3.55-4.4c1.96-.47,3.55.74,3.55,2.7Z"/>
        <path class="cls-1" d="M102.22,21.38c0,1.96-1.59,3.93-3.55,4.4-1.96.47-3.55-.74-3.55-2.7s1.59-3.93,3.55-4.4c1.96-.47,3.55.74,3.55,2.7Z"/>
        <path class="cls-1" d="M96.61,40.06c-.09,0-.18-.02-.26-.07l-8.27-4.66c-.17-.09-.27-.27-.27-.46V15.3c0-.29.24-.53.53-.53s.53.24.53.53v19.26l7.2,4.06v-15.16c0-.29.24-.53.53-.53s.53.24.53.53v16.06c0,.19-.1.36-.26.46-.08.05-.18.07-.27.07h0Z"/>
        <polygon class="cls-1" points="96.61 39.53 96.61 34.83 88.34 30.17 88.34 34.87 96.61 39.53"/>
      </g>
    </g>
  </g>
</svg>