<?xml version="1.0" encoding="UTF-8"?>
<svg id="Layer_2" data-name="Layer 2" xmlns="http://www.w3.org/2000/svg" viewBox="0 0 90.62 87.88">
  <defs>
    <style>
      .cls-1 {
        fill: #f49e00;
      }

      .cls-2 {
        fill: #f3a9c9;
      }

      .cls-3 {
        fill: #c3c4c4;
      }

      .cls-4 {
        fill: #fff;
      }

      .cls-5 {
        fill: #3d9dd8;
      }

      .cls-6 {
        fill: #e95e9d;
      }

      .cls-7 {
        fill: #00a960;
      }

      .cls-8 {
        fill: #5aafe2;
      }

      .cls-9 {
        fill: #fff232;
      }

      .cls-10 {
        fill: #fdd000;
      }

      .cls-11 {
        fill: #008ed3;
      }

      .cls-12 {
        fill: #9fd9f6;
      }

      .cls-13 {
        fill: #231916;
      }

      .cls-14 {
        fill: #acd052;
      }

      .cls-15 {
        fill: #898989;
      }

      .cls-16 {
        fill: #fffab5;
      }
    </style>
  </defs>
  <g id="Left_Folio" data-name="Left Folio">
    <g>
      <g>
        <g>
          <path class="cls-8" d="M89.95,82.61l-8.02-22.17c-.68-1.89-2.87-3.51-4.85-3.61l-28.17-1.27c-1.98-.09-3.61,1.46-3.61,3.45,0-1.98-1.62-3.53-3.61-3.45l-28.17,1.27c-1.98.09-4.16,1.71-4.85,3.61L.66,82.61c-.68,1.89.38,3.37,2.36,3.28l38.7-1.71c-.05.21-.1.43-.17.66l-.23.77c-.3,1.01.55,1.81,1.88,1.81h4.21c1.32,0,2.17-.8,1.87-1.81l-.23-.77c-.07-.23-.12-.45-.17-.66l38.7,1.71c1.98.09,3.05-1.38,2.36-3.28Z"/>
          <path class="cls-11" d="M90.11,84.11c-.95.06-1.75.09-2.31.09-.06,0-.1,0-.14,0l-38.7-1.71s-.05,0-.08,0c-.51,0-1,.23-1.32.63-.34.42-.46.98-.32,1.5l.05.21c.04.16.08.32.13.49l.12.4s-.09,0-.14,0h-4.21c-.05,0-.1,0-.14,0l.12-.41c.05-.17.09-.33.13-.49l.05-.21c.14-.52.02-1.08-.32-1.5-.32-.4-.81-.63-1.32-.63-.03,0-.05,0-.08,0l-38.7,1.71s-.08,0-.14,0c-.56,0-1.36-.03-2.31-.09.18,1.11,1.11,1.84,2.52,1.78l38.7-1.71c-.05.21-.1.43-.17.66l-.23.77c-.3,1.01.55,1.81,1.88,1.81h4.21c1.32,0,2.17-.8,1.87-1.81l-.23-.77c-.07-.23-.12-.45-.17-.66l38.7,1.71c1.41.06,2.34-.67,2.52-1.78Z"/>
          <path class="cls-13" d="M47.41,87.88h-4.21c-.89,0-1.64-.32-2.06-.87-.32-.43-.41-.97-.25-1.52l.22-.77s0-.03.02-.05l-38.09,1.68c-1.13.06-2.05-.35-2.59-1.11-.52-.74-.6-1.73-.22-2.78l8.02-22.17c.74-2.05,3.1-3.81,5.26-3.9l28.17-1.27c1.59-.08,2.95.76,3.63,2.04.68-1.28,2.04-2.12,3.63-2.04l28.16,1.27c2.16.1,4.52,1.85,5.26,3.9l8.02,22.17c.38,1.05.3,2.04-.22,2.78-.5.72-1.36,1.11-2.4,1.11h0c-.06,0-.13,0-.19,0l-38.09-1.68s0,.03.01.05l.23.77c.16.55.07,1.09-.25,1.52-.42.56-1.17.88-2.06.88h0ZM41.73,83.72c.14,0,.27.06.36.17.09.11.12.26.09.4l-.06.23c-.04.14-.07.29-.12.44l-.23.77c-.08.27-.04.51.11.72.24.32.74.51,1.33.51h4.21c.59,0,1.09-.19,1.33-.51.15-.2.19-.45.11-.72l-.23-.77c-.04-.15-.08-.29-.11-.43-.02-.08-.04-.16-.06-.24-.04-.14,0-.29.08-.4.09-.11.22-.18.37-.17l38.7,1.7s.1,0,.15,0h0c.74,0,1.33-.26,1.65-.73.35-.49.39-1.18.11-1.95l-8.02-22.17c-.62-1.71-2.65-3.22-4.44-3.3l-28.17-1.27c-1.73-.08-3.13,1.26-3.13,2.99,0,.25-.2.45-.46.45s-.46-.2-.46-.45c0-1.73-1.39-3.06-3.13-2.99l-28.17,1.27c-1.79.08-3.83,1.59-4.44,3.3L1.09,82.76c-.27.76-.23,1.45.11,1.95.35.5,1,.75,1.8.72l38.7-1.7s.01,0,.02,0h0Z"/>
        </g>
        <g>
          <g>
            <path class="cls-4" d="M5.86,81.83c-.93.04-1.42-.65-1.09-1.51l9.53-25.36c7.49-5.92,25.62-9.42,31-.3v25.69l-39.44,1.49Z"/>
            <path class="cls-13" d="M5.8,82.28c-.58,0-1.05-.22-1.33-.63-.29-.41-.33-.94-.12-1.5l9.53-25.36c.03-.08.08-.15.14-.2,4.45-3.52,12.17-5.98,18.79-5.98,6.1,0,10.67,2.06,12.88,5.8.04.07.06.15.06.23v25.69c0,.25-.2.45-.44.46l-39.53,1.49h0ZM14.69,55.23l-9.49,25.24c-.1.27-.1.5.01.66.11.15.31.24.58.24h.05s39-1.47,39-1.47v-25.13c-2.06-3.39-6.33-5.25-12.04-5.25-6.38,0-13.81,2.34-18.13,5.71h0Z"/>
            <path class="cls-3" d="M6.5,80.55c-.15,0-.29-.07-.38-.21-.14-.21-.08-.49.13-.63,8.78-5.71,28.57-8.67,37.92-1.07.19.16.22.45.07.64-.16.2-.44.23-.64.07-9.06-7.36-28.3-4.43-36.85,1.12-.08.05-.16.07-.25.07h0Z"/>
          </g>
          <g>
            <path class="cls-4" d="M84.76,81.83c.93.04,1.42-.65,1.09-1.51l-9.53-25.36c-7.48-5.92-25.62-9.42-31-.3v25.69l39.45,1.49Z"/>
            <path class="cls-13" d="M84.82,82.28h-.08s-39.45-1.49-39.45-1.49c-.24,0-.44-.21-.44-.46v-25.69c0-.08.02-.16.06-.23,2.21-3.74,6.79-5.8,12.88-5.8,6.62,0,14.34,2.46,18.79,5.98.06.05.12.12.14.2l9.53,25.36c.21.56.17,1.09-.12,1.5-.28.41-.75.63-1.33.63h0ZM45.76,79.9l39.06,1.47c.27,0,.48-.08.58-.24.11-.16.12-.39.01-.66l-9.49-25.24c-4.32-3.36-11.75-5.71-18.13-5.71-5.7,0-9.97,1.86-12.04,5.25v25.13h0Z"/>
            <path class="cls-3" d="M84.12,80.55c-.08,0-.17-.02-.25-.07-8.55-5.56-27.79-8.48-36.85-1.12-.19.16-.48.13-.64-.07-.16-.19-.13-.48.06-.64,9.36-7.6,29.15-4.64,37.92,1.07.21.14.27.42.13.63-.09.13-.23.21-.38.21h0Z"/>
          </g>
        </g>
      </g>
      <g>
        <path class="cls-10" d="M77.64,49.3c-2.29-2.44-5.52-3.84-8.87-3.84-3.09,0-6.04,1.16-8.29,3.28-2.37,2.22-3.74,5.22-3.85,8.46-.09,2.59.64,5.08,2.06,7.18l-1.19,2.89c-.07.17-.03.35.09.48.09.09.21.14.33.14.05,0,.1,0,.14-.02l2.9-.97c2.17,1.82,4.95,2.84,7.8,2.84h0c3.09,0,6.04-1.16,8.3-3.28,2.37-2.21,3.74-5.22,3.84-8.46.11-3.24-1.05-6.33-3.27-8.7Z"/>
        <g>
          <g>
            <path class="cls-7" d="M74.79,62.01c-.54-1.09-1.46-1.6-2.48-1.75l-1-.25c-.12.83.33,2.88,1.71,3.52.85.39,2.06.32,2.67-.16-.32-.38-.67-.87-.9-1.35Z"/>
            <path class="cls-13" d="M74.25,64.23h0c-.51,0-1-.1-1.42-.29-1.57-.73-2.12-2.99-1.97-4,.02-.13.09-.24.2-.31.11-.07.24-.09.36-.06l.98.25c1.29.2,2.25.89,2.79,2,.2.41.5.87.84,1.26.08.09.12.22.11.34-.01.12-.07.24-.17.31-.41.32-1.04.51-1.72.51h0ZM71.77,60.59c.09.82.52,2.09,1.45,2.52.5.23,1.26.27,1.78.1-.2-.27-.43-.62-.61-1-.41-.85-1.13-1.35-2.13-1.5-.01,0-.03,0-.04,0l-.43-.11h0Z"/>
          </g>
          <g>
            <path class="cls-6" d="M74.14,59.87c.47-.43.71-1.02.68-1.67-.07-1.23-.78-2-2-2.18-.34-.05-.69-.05-1.02-.02.61-.76.91-1.56.83-2.27-.06-.47-.31-1.15-1.24-1.66-1.13-.63-2.78-.15-3.55.96-.23.33-.38.79-.46,1.31-.48-.55-1.07-.9-1.68-.99-.74-.11-1.47.15-2.17.78-.8.71-.88,1.89-.21,3.08.23.41.65.71,1.05.91-.57.35-1.19.9-1.39,1.66-.16.61-.02,1.22.42,1.83.38.53.86.84,1.42.92.98.14,1.98-.43,2.67-1.07.05.84.33,1.53.83,2.07.3.32.67.51,1.08.57.79.12,1.59-.27,2.11-1,.51-.73.58-1.74.23-2.62.04,0,.08.02.12.02.85.12,1.7-.11,2.26-.62Z"/>
            <path class="cls-13" d="M69.69,64.58c-.11,0-.23,0-.35-.03-.51-.07-.98-.32-1.35-.71-.4-.43-.68-.95-.83-1.54-.53.36-1.24.71-2.03.71-.13,0-.25,0-.37-.03-.69-.1-1.27-.47-1.73-1.1-.52-.72-.69-1.47-.49-2.21.15-.55.49-1.06,1.02-1.51-.28-.21-.49-.45-.64-.72-.78-1.38-.66-2.78.3-3.64.8-.72,1.67-1.02,2.54-.89.46.07.93.27,1.35.58.09-.27.21-.51.34-.71.6-.88,1.7-1.44,2.79-1.44.49,0,.96.12,1.36.34,1.09.61,1.4,1.43,1.47,2,.07.6-.08,1.23-.43,1.87.08,0,.16.02.23.03,1.44.21,2.31,1.16,2.39,2.61.04.78-.25,1.5-.82,2.02-.54.49-1.28.77-2.08.78.16.85,0,1.72-.47,2.38-.53.76-1.36,1.22-2.2,1.22h0ZM67.5,61c.06,0,.11.01.17.03.17.07.27.22.28.4.04.73.28,1.33.71,1.79.23.24.51.39.82.44.63.09,1.26-.23,1.67-.81.41-.59.48-1.43.17-2.19-.06-.16-.03-.33.07-.46.11-.13.27-.19.44-.15.03,0,.06.01.09.01.73.11,1.44-.09,1.9-.51.37-.34.56-.8.53-1.3-.06-1.02-.6-1.61-1.62-1.76-.28-.04-.61-.05-.91-.02-.18.01-.35-.08-.44-.24-.09-.16-.07-.36.05-.5.54-.67.8-1.36.73-1.93-.04-.37-.25-.89-1.01-1.31-.26-.15-.58-.22-.91-.22-.79,0-1.61.42-2.04,1.04-.18.27-.31.66-.38,1.12-.02.18-.15.32-.32.37-.17.05-.36,0-.47-.13-.42-.47-.92-.77-1.41-.85-.6-.09-1.2.13-1.8.67-.63.56-.67,1.53-.12,2.52.15.27.45.52.86.73.15.07.24.22.25.38,0,.16-.08.32-.21.41-.45.28-1.02.74-1.19,1.38-.13.47-.01.94.35,1.44.31.43.68.67,1.12.73.08.01.16.02.24.02.63,0,1.38-.36,2.06-.98.08-.08.19-.12.31-.12h0Z"/>
          </g>
          <path class="cls-16" d="M70.38,58.08c-.13.88-.95,1.49-1.83,1.36-.88-.13-1.49-.95-1.36-1.83.13-.88.95-1.49,1.83-1.36.88.13,1.49.95,1.36,1.83Z"/>
        </g>
      </g>
      <g>
        <path class="cls-2" d="M69.59,10.39c-3.44-5.17-8.69-8.7-14.78-9.93-1.53-.31-3.08-.46-4.62-.46-11.02,0-20.6,7.85-22.78,18.67-2.38,11.79,4.66,23.34,15.91,26.82l1.07,4.56c.04.17.18.31.35.34.03,0,.06,0,.09,0,.14,0,.28-.07.37-.19l2.75-3.79c.76.07,1.52.11,2.28.11,11.02,0,20.6-7.85,22.78-18.67,1.23-6.09.01-12.3-3.43-17.47Z"/>
        <g>
          <g>
            <path class="cls-5" d="M48.92,11.42c2.53,3.66,1.6,8.68-2.06,11.21-3.66,2.53-8.68,1.61-11.21-2.06-2.53-3.66-1.61-8.68,2.06-11.21,3.66-2.53,8.68-1.61,11.21,2.06Z"/>
            <path class="cls-13" d="M42.29,24.51c-2.81,0-5.43-1.38-7.01-3.68-1.29-1.87-1.78-4.13-1.37-6.37.41-2.24,1.67-4.18,3.54-5.47,1.43-.98,3.1-1.5,4.83-1.5,2.8,0,5.43,1.38,7.01,3.68,2.66,3.86,1.69,9.18-2.18,11.84-1.43.99-3.09,1.51-4.82,1.51h0ZM42.28,8.39c-1.54,0-3.03.46-4.31,1.34-1.67,1.15-2.8,2.89-3.16,4.89-.37,2,.07,4.02,1.22,5.69,1.42,2.06,3.76,3.29,6.27,3.29,1.54,0,3.03-.47,4.31-1.35,3.45-2.38,4.32-7.12,1.94-10.58-1.42-2.06-3.76-3.29-6.27-3.29h0Z"/>
          </g>
          <path class="cls-9" d="M47.52,9.35c.26.2.5.42.73.66,1.74-.92,3.43-1.68,3.76-1.2.02.03.03.09.01.17-.2,1.12-3.41,4.38-9,8.24-6.59,4.53-10.71,5.93-11.08,5.4-.32-.46,1.08-1.81,2.62-3.17-.13-.3-.26-.61-.35-.92-2.29,2.05-4.73,4.63-3.95,5.76,1.11,1.6,7.73-1.73,13.7-5.85h0s0,0,0,0c3.16-2.18,5.97-4.46,7.92-6.42,2.11-2.12,2.92-3.57,2.41-4.31-.78-1.13-4.06.23-6.79,1.65Z"/>
        </g>
        <g>
          <path class="cls-4" d="M55.46,17.78l-.86,9.03-7.26,7.33c-1.15,1.16-.76,2.24.87,2.39l15.43,1.46c1.63.15,2.21-.83,1.3-2.18l-5.76-8.56,1.16-12.23-5.71-.54h0c.31.52,1,1.58.84,3.31Z"/>
          <path class="cls-12" d="M64.93,35.8l-3.58-5.32-9.5-.9-4.51,4.55c-1.15,1.16-.76,2.24.87,2.39l15.43,1.46c1.63.15,2.21-.83,1.3-2.18Z"/>
          <g>
            <path class="cls-4" d="M62.37,32.52h-.03l-3.11-.29c-.17-.02-.3-.17-.29-.34.02-.17.17-.3.34-.29l3.11.3c.17.02.3.17.29.34-.01.16-.15.29-.31.29h0Z"/>
            <path class="cls-4" d="M63.43,34.14s-.02,0-.03,0l-3.71-.35c-.17-.02-.3-.17-.29-.34.02-.17.17-.3.34-.29l3.71.35c.17.02.3.17.28.34-.01.16-.15.29-.31.29h0Z"/>
            <path class="cls-4" d="M64.49,35.75h-.03l-4.31-.41c-.17-.02-.3-.17-.29-.34.01-.17.17-.3.34-.29l4.31.41c.18.02.3.17.29.35-.01.16-.15.29-.31.29h0Z"/>
          </g>
          <path class="cls-13" d="M63.96,38.46h0c-.12,0-.24,0-.37-.02l-15.43-1.46c-1.31-.12-1.73-.75-1.86-1.12-.13-.36-.21-1.11.71-2.05l7.15-7.21.84-8.87c.14-1.5-.43-2.45-.73-2.96l-.05-.08c-.09-.15-.08-.35.02-.49.1-.15.28-.22.46-.19l5.67.54c.12.01.23.07.31.16.08.09.12.21.1.33l-1.14,12.07,5.67,8.43c.53.78.65,1.52.35,2.09-.28.53-.88.82-1.7.82h0ZM55.43,15c.3.64.59,1.58.48,2.82l-.86,9.03c0,.11-.06.2-.13.28l-7.26,7.33c-.41.42-.6.83-.5,1.1.1.27.51.46,1.09.52l15.43,1.46c.1,0,.19.01.28.01h0c.46,0,.78-.12.89-.34.13-.25.02-.68-.3-1.15l-5.76-8.56c-.06-.09-.08-.19-.08-.3l1.12-11.78-4.41-.42h0Z"/>
        </g>
      </g>
      <g>
        <path class="cls-14" d="M34.08,65.18c2.33-3.31,3.44-7.28,3.16-11.38-.33-4.72-2.48-9.02-6.04-12.12-3.22-2.8-7.34-4.34-11.61-4.34-5.13,0-10,2.22-13.36,6.09-3.1,3.57-4.63,8.13-4.3,12.84.33,4.72,2.47,9.02,6.04,12.12,3.22,2.8,7.34,4.34,11.61,4.34,4.5,0,8.81-1.71,12.07-4.75l3.34.98s.09.02.13.02c.13,0,.26-.06.34-.16.12-.13.14-.33.07-.49l-1.44-3.17Z"/>
        <g>
          <g>
            <g>
              <path class="cls-4" d="M23.98,59.37c-.21-1.64.44-3.78.7-5.31.3-1.78.21-3.18-.67-4.85-1.71-3.24-5.05-3.74-7.6-2.77-2.54.96-4.71,3.55-3.84,7.11.45,1.83,1.31,2.94,2.72,4.07,1.21.97,3.11,2.13,4.05,3.5"/>
              <path class="cls-13" d="M19.36,61.58c-.14,0-.29-.07-.38-.2-.65-.95-1.85-1.83-2.9-2.61-.38-.28-.74-.54-1.06-.8-1.61-1.29-2.44-2.54-2.88-4.32-.94-3.84,1.39-6.61,4.12-7.65,2.73-1.04,6.31-.52,8.16,2.98.86,1.62,1.06,3.11.71,5.14-.07.4-.16.83-.26,1.29-.27,1.28-.58,2.74-.44,3.88.03.25-.14.48-.39.51-.25.04-.48-.14-.51-.39-.16-1.3.16-2.83.45-4.19.1-.45.19-.87.25-1.25.32-1.84.14-3.12-.62-4.56-1.59-3.01-4.68-3.45-7.03-2.56-2.35.9-4.37,3.28-3.56,6.58.39,1.58,1.11,2.66,2.56,3.82.3.24.66.5,1.03.77,1.11.82,2.38,1.75,3.12,2.83.14.21.09.49-.12.63-.08.05-.17.08-.26.08h0Z"/>
            </g>
            <path class="cls-1" d="M20.53,61.29c-.13,0-.25-.08-.3-.21-.34-.94-2.11-3.78-3.73-5.35-.95-.91-1.43-2.14-1.23-3.12.12-.61.49-1.05,1.04-1.26.29-.11.56-.12.82-.07.19-.38.48-.65.83-.78.35-.13.75-.12,1.14.03.16-.21.38-.38.66-.49.55-.21,1.12-.12,1.61.25.8.6,1.26,1.84,1.16,3.15-.17,2.25.39,5.55.76,6.48.07.16-.01.35-.18.41-.16.06-.35-.01-.41-.18-.38-.95-.99-4.33-.81-6.76.1-1.25-.39-2.21-.91-2.6-.22-.17-.58-.33-1.01-.17-.13.05-.24.12-.32.21.07.05.14.11.2.17.64.56,1.24,1.54,1.07,2.27-.07.33-.3.57-.64.66-.54.15-1.1-.35-1.39-1.24-.17-.51-.22-1.09-.09-1.59-.2-.07-.43-.1-.65-.02-.22.08-.37.25-.47.44.43.29.78.75,1,1.25.37.86.28,1.6-.22,1.84-.31.16-.64.13-.92-.07-.6-.43-.81-1.56-.7-2.41.01-.09.03-.18.05-.26-.12-.01-.25,0-.38.05-.43.16-.59.52-.64.79-.13.64.14,1.67,1.05,2.54,1.75,1.7,3.54,4.63,3.89,5.59.06.16-.03.35-.19.41-.04.01-.07.02-.11.02h0ZM17.51,52.16s0,.04,0,.06c-.11.81.15,1.6.44,1.81.09.06.17.07.27.01.12-.06.15-.49-.08-1.02-.11-.26-.33-.62-.62-.87h0ZM19.41,51.45c-.05.38.02.79.11,1.05.18.56.48.86.62.82.11-.03.17-.09.19-.19.08-.35-.26-1.12-.87-1.65-.01-.01-.03-.03-.05-.04h0Z"/>
            <polygon class="cls-15" points="25.95 64.64 21.39 66.37 18.95 61.28 24.39 59.21 25.95 64.64"/>
            <path class="cls-4" d="M20.56,63.6c-.08,0-.16-.03-.22-.09-.12-.12-.13-.32,0-.45.97-.99,2.32-2.01,3.44-2.6.16-.08.35-.02.43.13.08.16.02.35-.13.43-1.06.55-2.35,1.53-3.28,2.48-.06.07-.14.1-.22.1h0Z"/>
            <path class="cls-4" d="M21.17,64.86c-.08,0-.16-.03-.22-.09-.12-.13-.12-.33,0-.45.75-.74,1.74-1.52,2.64-2.08.15-.09.34-.05.43.1.09.15.05.34-.1.43-.87.54-1.82,1.28-2.53,1.99-.06.06-.14.09-.22.09h0Z"/>
          </g>
          <path class="cls-13" d="M21.39,66.83c-.17,0-.33-.1-.41-.26l-2.44-5.09c-.06-.11-.06-.25-.01-.37.05-.12.14-.21.26-.26l5.44-2.07c.12-.04.25-.04.36.02.11.06.2.16.23.28l1.56,5.43c.07.23-.05.47-.28.55l-4.56,1.73c-.05.02-.11.03-.16.03h0ZM19.57,61.53l2.05,4.27,3.78-1.43-1.31-4.55-4.51,1.71h0Z"/>
        </g>
      </g>
    </g>
  </g>
</svg>